<?xml version="1.0" encoding="UTF-8" standalone="no"?>
<!-- Created with Inkscape (http://www.inkscape.org/) -->

<svg
   width="500"
   height="500"
   viewBox="0 0 132.29166 132.29167"
   version="1.1"
   id="svg1"
   inkscape:version="1.4.3 (0d15f75042, 2025-12-25)"
   sodipodi:docname="dcertificate.svg"
   inkscape:export-filename="dcertificate_light.png"
   inkscape:export-xdpi="96"
   inkscape:export-ydpi="96"
   xmlns:inkscape="http://www.inkscape.org/namespaces/inkscape"
   xmlns:sodipodi="http://sodipodi.sourceforge.net/DTD/sodipodi-0.dtd"
   xmlns:xlink="http://www.w3.org/1999/xlink"
   xmlns="http://www.w3.org/2000/svg"
   xmlns:svg="http://www.w3.org/2000/svg">
  <sodipodi:namedview
     id="namedview1"
     pagecolor="#ffffff"
     bordercolor="#000000"
     borderopacity="0.25"
     inkscape:showpageshadow="2"
     inkscape:pageopacity="0.0"
     inkscape:pagecheckerboard="0"
     inkscape:deskcolor="#d1d1d1"
     inkscape:document-units="mm"
     inkscape:zoom="0.84036935"
     inkscape:cx="-185.03769"
     inkscape:cy="151.719"
     inkscape:window-width="1920"
     inkscape:window-height="1004"
     inkscape:window-x="0"
     inkscape:window-y="0"
     inkscape:window-maximized="1"
     inkscape:current-layer="g15"
     showguides="true"
     showgrid="false" />
  <defs
     id="defs1">
    <linearGradient
       id="linearGradient74"
       inkscape:collect="always">
      <stop
         style="stop-color:#008080;stop-opacity:1;"
         offset="0"
         id="stop73" />
      <stop
         style="stop-color:#006666;stop-opacity:1;"
         offset="1"
         id="stop74" />
    </linearGradient>
    <linearGradient
       id="linearGradient70"
       inkscape:collect="always">
      <stop
         style="stop-color:#000000;stop-opacity:1;"
         offset="0.32016087"
         id="stop69" />
      <stop
         style="stop-color:#008080;stop-opacity:1;"
         offset="1"
         id="stop70" />
    </linearGradient>
    <linearGradient
       id="linearGradient63"
       inkscape:collect="always">
      <stop
         style="stop-color:#660022;stop-opacity:1;"
         offset="0.37700161"
         id="stop62" />
      <stop
         style="stop-color:#ff004e;stop-opacity:1;"
         offset="1"
         id="stop63" />
    </linearGradient>
    <linearGradient
       id="linearGradient56"
       inkscape:collect="always">
      <stop
         style="stop-color:#000000;stop-opacity:1;"
         offset="0.37700161"
         id="stop55" />
      <stop
         style="stop-color:#ff004e;stop-opacity:1;"
         offset="1"
         id="stop56" />
    </linearGradient>
    <radialGradient
       inkscape:collect="always"
       xlink:href="#linearGradient70"
       id="radialGradient29"
       cx="33.274647"
       cy="29.281691"
       fx="33.274647"
       fy="29.281691"
       r="27.318312"
       gradientUnits="userSpaceOnUse"
       gradientTransform="matrix(2.2438691,-0.13426169,0.13426172,2.2438692,-12.449532,4.9090711)" />
    <linearGradient
       inkscape:collect="always"
       xlink:href="#linearGradient63"
       id="linearGradient66"
       gradientUnits="userSpaceOnUse"
       x1="5.8062201"
       y1="29.281691"
       x2="60.743073"
       y2="29.281691" />
    <radialGradient
       inkscape:collect="always"
       xlink:href="#linearGradient56"
       id="radialGradient66"
       gradientUnits="userSpaceOnUse"
       gradientTransform="matrix(0.9990853,0.01476481,-0.01476479,0.99908535,0.46277469,-0.46451263)"
       cx="33.274647"
       cy="29.281691"
       fx="33.274647"
       fy="29.281691"
       r="27.318312" />
    <linearGradient
       inkscape:collect="always"
       xlink:href="#linearGradient74"
       id="linearGradient77"
       x1="5.8062201"
       y1="29.281691"
       x2="60.743073"
       y2="29.281691"
       gradientUnits="userSpaceOnUse" />
  </defs>
  <g
     inkscape:groupmode="layer"
     id="layer3"
     inkscape:label="page_black"
     style="display:none"
     sodipodi:insensitive="true">
    <rect
       style="display:inline;fill:#000000;fill-opacity:1;stroke:none;stroke-width:0.529167;stroke-linejoin:round;stroke-opacity:1"
       id="rect23-9"
       width="132.29167"
       height="132.29167"
       x="0"
       y="-132.29167"
       transform="rotate(90)" />
  </g>
  <g
     inkscape:groupmode="layer"
     id="layer4"
     inkscape:label="page_white"
     sodipodi:insensitive="true"
     style="display:none">
    <rect
       style="display:inline;fill:#ffffff;fill-opacity:1;stroke:none;stroke-width:0.529167;stroke-linejoin:round;stroke-opacity:1"
       id="rect23-93"
       width="132.29167"
       height="132.29167"
       x="-2.5431316e-06"
       y="-132.29167"
       transform="rotate(90)" />
  </g>
  <g
     inkscape:groupmode="layer"
     id="layer7"
     inkscape:label="logo3_base"
     style="display:none"
     sodipodi:insensitive="true">
    <path
       style="display:inline;fill:#000000;fill-opacity:1;stroke:none;stroke-width:0.529167;stroke-linejoin:round;stroke-opacity:1"
       d="m 29.283418,67.811566 h 21.30323 l 21.73504,21.735048 h -22.88657 z"
       id="path27"
       sodipodi:nodetypes="ccccc" />
    <path
       style="display:inline;fill:#000000;fill-opacity:1;stroke:none;stroke-width:0.529167;stroke-linejoin:round;stroke-opacity:1"
       d="M 49.435118,89.546614 82.304238,42.757403 103.00825,42.745053 72.321688,89.546612 Z"
       id="path28"
       sodipodi:nodetypes="ccccc" />
  </g>
  <g
     inkscape:groupmode="layer"
     id="layer2"
     inkscape:label="logo2_base"
     style="display:none"
     sodipodi:insensitive="true">
    <path
       id="path16"
       style="display:inline;fill:#b2b2b2;fill-opacity:1;stroke:none;stroke-width:0.529166;stroke-linejoin:round;stroke-opacity:1"
       d="m 89.09069,45.002342 c -1.109465,0.04312 -2.168691,0.463614 -2.977352,1.272283 l -28.10517,28.105158 -11.82935,-11.82848 c -1.848392,-1.84839 -5.006001,-1.667157 -7.079839,0.406676 -2.073836,2.073841 -2.255934,5.231459 -0.407557,7.079848 l 15.573055,15.572179 0.406672,0.407551 c 0.895553,0.895545 2.098115,1.314087 3.336148,1.272276 2.94e-4,1e-5 5.9e-4,-7e-6 8.71e-4,0 1.238033,0.04179 2.440621,-0.376745 3.33616,-1.27228 L 61.751001,85.610006 93.599848,53.761148 C 95.448241,51.91276 95.267016,48.755142 93.193177,46.681304 92.026649,45.514771 90.51715,44.946901 89.09069,45.002342 Z" />
    <path
       id="path22"
       style="fill:#999999;fill-opacity:1;stroke:none;stroke-width:0.529167;stroke-linejoin:round;stroke-opacity:1"
       d="M 86.095104,46.293021 58.008493,74.379631 46.178727,62.551319 c -0.619772,-0.61977 -1.386322,-1.011071 -2.210267,-1.179635 a 32.559699,32.559699 0 0 0 -3.270705,10.67194 l 13.566875,13.566146 0.406293,0.407747 c 0.895553,0.895546 2.098083,1.314477 3.336116,1.272667 2.95e-4,9e-6 0.0012,-9e-6 0.0013,0 1.238033,0.04178 2.440576,-0.377133 3.336116,-1.272667 L 61.750785,85.60977 93.59943,53.761125 c 0.547156,-0.547155 0.917024,-1.209371 1.112039,-1.9239 a 32.559699,32.559699 0 0 0 -8.616483,-5.544204 z" />
    <path
       id="circle18"
       style="fill:#808080;fill-opacity:1;stroke:none;stroke-width:0.529167;stroke-linejoin:round;stroke-opacity:1"
       d="m 81.615694,50.77243 -23.607201,23.607201 -6.028268,-6.02754 a 29.689032,29.689032 0 0 0 -2.535885,12.004931 29.689032,29.689032 0 0 0 0.0036,0.436094 29.689032,29.689032 0 0 0 0,7.27e-4 l 4.816654,4.815927 0.406293,0.407747 c 0.895553,0.895546 2.098083,1.314477 3.336116,1.272667 2.95e-4,9e-6 0.0012,-9e-6 0.0013,0 1.238033,0.04178 2.440578,-0.377133 3.336116,-1.272667 L 61.750747,85.60977 93.166207,54.194312 A 29.689032,29.689032 0 0 0 81.61554,50.77243 Z" />
    <path
       id="circle17"
       style="fill:#666666;fill-opacity:1;stroke:none;stroke-width:0.529167;stroke-linejoin:round;stroke-opacity:1"
       d="m 79.133596,55.584723 a 24.772378,24.772378 0 0 0 -2.452301,0.122113 L 58.008493,74.379631 55.764791,72.136658 a 24.772378,24.772378 0 0 0 -1.403493,8.220364 24.772378,24.772378 0 0 0 0.748626,6.04353 c 0.831469,0.6316 1.851395,0.924947 2.897115,0.889632 2.95e-4,9e-6 0.0012,-9e-6 0.0013,0 1.238033,0.04178 2.440576,-0.377133 3.336116,-1.272667 L 61.750852,85.60977 89.50167,57.858951 A 24.772378,24.772378 0 0 0 79.133545,55.584723 Z" />
    <path
       id="path21"
       style="display:inline;fill:#000000;fill-opacity:1;stroke:none;stroke-width:0.529166;stroke-linejoin:round;stroke-opacity:1"
       d="m -135.65056,51.925659 c -0.78882,0.03065 -1.54192,0.329625 -2.11687,0.904581 l -19.98252,19.982512 -8.41056,-8.409942 c -1.31419,-1.314189 -3.55922,-1.185334 -5.0337,0.289144 -1.47447,1.474482 -1.60394,3.71952 -0.28977,5.033707 l 11.0723,11.071677 0.28914,0.289765 c 0.63673,0.636725 1.49174,0.934304 2.37197,0.904577 2.1e-4,7e-6 4.2e-4,-6e-6 6.2e-4,0 0.88023,0.02971 1.73526,-0.267863 2.37198,-0.90458 l 0.28914,-0.289762 22.64424,-22.644249 c 1.31419,-1.314186 1.18534,-3.559224 -0.28914,-5.033704 -0.82939,-0.829395 -1.90263,-1.233145 -2.91683,-1.193726 z" />
  </g>
  <g
     inkscape:label="logo_base"
     inkscape:groupmode="layer"
     id="layer1"
     style="display:none"
     sodipodi:insensitive="true">
    <path
       sodipodi:type="star"
       style="fill:#000000;fill-opacity:1;stroke-width:0.276174;stroke-linejoin:round"
       id="path4"
       inkscape:flatsided="false"
       sodipodi:sides="8"
       sodipodi:cx="33.274647"
       sodipodi:cy="29.281691"
       sodipodi:r1="27.296307"
       sodipodi:r2="23.498674"
       sodipodi:arg1="0.80017541"
       sodipodi:arg2="0.93599218"
       inkscape:rounded="0.3"
       inkscape:randomized="0"
       d="m 52.288732,48.866198 c -0.794279,1.315422 -3.650681,-1.230574 -5.078905,-0.66366 -4.629796,1.837732 -9.502696,7.177919 -14.33853,8.372479 -1.491784,0.368504 -1.711274,-3.451568 -3.12205,-4.060607 -4.573232,-1.974287 -11.794975,-1.643865 -16.059108,-4.218634 -1.315422,-0.794279 1.230574,-3.650681 0.66366,-5.078906 -1.837732,-4.629795 -7.1779184,-9.502695 -8.3724786,-14.338529 -0.3685043,-1.491784 3.4515682,-1.711274 4.0606066,-3.12205 1.974287,-4.573232 1.643865,-11.794975 4.218635,-16.0591078 0.794279,-1.3154225 3.650681,1.2305738 5.078905,0.6636598 4.629795,-1.8377317 9.502695,-7.1779186 14.338529,-8.3724788 1.491784,-0.3685043 1.711275,3.4515682 3.12205,4.0606068 4.573233,1.974287 11.794975,1.6438652 16.059108,4.218635 1.315423,0.794278 -1.230573,3.650681 -0.66366,5.078905 1.837732,4.629795 7.177919,9.502695 8.372479,14.338529 0.368504,1.491784 -3.451568,1.711275 -4.060607,3.12205 -1.974287,4.573232 -1.643865,11.794975 -4.218634,16.059108 z"
       transform="matrix(1.9107406,-0.1426927,0.1426927,1.9107406,-1.6116694,14.944167)" />
    <path
       sodipodi:type="star"
       style="fill:#717171;fill-opacity:1;stroke-width:0.333277;stroke-linejoin:round"
       id="path2"
       inkscape:flatsided="false"
       sodipodi:sides="8"
       sodipodi:cx="33.274647"
       sodipodi:cy="29.281691"
       sodipodi:r1="27.296307"
       sodipodi:r2="23.223415"
       sodipodi:arg1="0.80017541"
       sodipodi:arg2="0.9548464"
       inkscape:rounded="0.3"
       inkscape:randomized="0"
       d="m 52.288732,48.866198 c -0.900529,1.42974 -4.026622,-1.252373 -5.597125,-0.628975 -4.500589,1.786471 -9.098361,7.265425 -13.82031,8.337794 -1.647748,0.374209 -1.961689,-3.732813 -3.513012,-4.402518 C 24.912662,50.253328 17.787341,50.876418 13.690139,48.295776 12.2604,47.395247 14.942513,44.269154 14.319114,42.69865 12.532643,38.198062 7.0536892,33.60029 5.9813204,28.878341 c -0.3742087,-1.647749 3.7328129,-1.96169 4.4025176,-3.513013 1.919171,-4.445622 1.296081,-11.570943 3.876724,-15.6681448 0.900529,-1.4297397 4.026621,1.2523728 5.597125,0.6289748 4.500589,-1.7864709 9.09836,-7.2654249 13.820309,-8.3377938 1.647749,-0.3742086 1.96169,3.7328129 3.513013,4.4025176 4.445623,1.919171 11.570944,1.2960809 15.668145,3.8767242 1.42974,0.900528 -1.252373,4.026621 -0.628975,5.597125 1.786471,4.500589 7.265425,9.09836 8.337794,13.820309 0.374209,1.647749 -3.732813,1.96169 -4.402517,3.513013 -1.919171,4.445623 -1.296081,11.570943 -3.876724,15.668145 z"
       transform="matrix(1.5876842,-0.01618609,0.01618609,1.5876842,12.842247,20.19434)" />
    <path
       sodipodi:type="star"
       style="fill:#ffffff;fill-opacity:1;stroke-width:0.376754;stroke-linejoin:round"
       id="path3"
       inkscape:flatsided="false"
       sodipodi:sides="8"
       sodipodi:cx="33.274647"
       sodipodi:cy="29.281691"
       sodipodi:r1="27.443815"
       sodipodi:r2="24.235929"
       sodipodi:arg1="0.7615401"
       sodipodi:arg2="0.95550474"
       inkscape:rounded="0.3"
       inkscape:randomized="0"
       d="m 53.137771,48.218937 c -0.95008,1.506176 -4.245681,0.133483 -5.874227,0.853939 -4.216856,1.865504 -8.836949,6.626641 -13.334203,7.64482 -1.736835,0.393219 -3.096537,-2.907763 -4.757531,-3.54988 C 24.870931,51.50516 18.2374,51.604892 14.3374,49.144814 12.831224,48.194735 14.203917,44.899134 13.483461,43.270588 11.617957,39.053732 6.8568206,34.433639 5.8386418,29.936385 5.4454221,28.19955 8.7464046,26.839848 9.388521,25.178853 c 1.662657,-4.300878 1.562924,-10.934409 4.023002,-14.834409 0.950079,-1.5061759 4.245681,-0.133483 5.874226,-0.8539389 4.216856,-1.8655043 8.83695,-6.6266407 13.334204,-7.6448195 1.736835,-0.3932196 3.096536,2.9077628 4.757531,3.5498792 4.300878,1.6626569 10.934409,1.5629243 14.834409,4.0230019 1.506176,0.9500793 0.133483,4.2456813 0.853939,5.8742263 1.865505,4.216856 6.626641,8.836949 7.64482,13.334203 0.393219,1.736835 -2.907763,3.096537 -3.549879,4.757532 -1.662657,4.300878 -1.562925,10.934409 -4.023002,14.834409 z"
       transform="matrix(1.4044431,0.01657206,-0.01657206,1.4044431,19.898741,24.469935)" />
    <path
       id="path9"
       style="fill:#000000;fill-opacity:1;stroke:none;stroke-width:0.529166;stroke-linejoin:round;stroke-opacity:1"
       d="m 82.459421,51.113127 c -0.78882,0.03065 -1.541922,0.329625 -2.116879,0.904581 L 60.360028,72.000219 51.949469,63.590278 c -1.314189,-1.314189 -3.559226,-1.185334 -5.033707,0.289143 -1.474478,1.474482 -1.60395,3.71952 -0.289762,5.033707 l 11.072296,11.071677 0.289144,0.289765 c 0.636727,0.636725 1.491733,0.934304 2.371971,0.904577 2.04e-4,7e-6 4.15e-4,-6e-6 6.17e-4,0 0.880227,0.02971 1.735256,-0.267863 2.371975,-0.90458 l 0.28914,-0.289762 22.644248,-22.644248 c 1.31419,-1.314186 1.185336,-3.559224 -0.289145,-5.033704 -0.829394,-0.829395 -1.902626,-1.233145 -2.916825,-1.193726 z" />
  </g>
  <g
     inkscape:label="logo_style1"
     inkscape:groupmode="layer"
     id="g15"
     style="display:inline"
     sodipodi:insensitive="true">
    <circle
       style="fill:#000000;fill-opacity:1;stroke:none;stroke-width:0.529167;stroke-linejoin:round;stroke-opacity:1"
       id="path78"
       cx="66.145836"
       cy="-79.92823"
       r="60.206036" />
    <path
       id="path11"
       style="fill:url(#radialGradient29);fill-opacity:1;stroke-width:0.529165;stroke-linejoin:round"
       d="M 63.069626,4.7534992 C 62.880079,4.749716 62.683361,4.7796269 62.478049,4.846944 51.829245,8.3370674 41.79182,21.134156 31.713012,26.032682 c -3.109167,1.511123 -9.944182,-3.72245 -11.505719,-0.638297 -5.061951,9.997733 -3.110695,26.144234 -6.773709,36.734812 -1.129987,3.267037 -9.6633187,4.399432 -8.5866637,7.684433 3.4901221,10.648803 16.2872127,20.686229 21.1857357,30.76504 1.511126,3.10916 -3.722449,9.94419 -0.638295,11.50573 9.997734,5.06194 26.144233,3.11068 36.734811,6.77371 3.267036,1.12998 4.399432,9.66332 7.684433,8.58667 10.648804,-3.49014 20.686228,-16.28722 30.765035,-21.18576 3.10917,-1.51113 9.94418,3.72245 11.50574,0.63829 5.06193,-9.997726 3.11067,-26.144225 6.77369,-36.734802 1.12998,-3.267038 9.66332,-4.399434 8.58667,-7.684434 C 123.95461,51.829266 111.15753,41.791842 106.259,31.71303 104.74787,28.603864 109.98145,21.768852 106.89729,20.207312 96.899562,15.145362 80.753059,17.096619 70.162483,13.433604 67.099637,12.374243 65.912759,4.8080091 63.069626,4.7535004 Z m 3.724813,10.4572628 c 2.716029,0.02297 3.44826,7.027442 6.216714,8.189244 8.323732,3.493116 21.59475,2.196228 29.281547,6.929035 2.68235,1.651541 -2.258,7.529946 -1.06605,10.445736 3.41576,8.355771 13.71635,16.82207 15.8051,25.604058 0.72891,3.064524 -6.92114,3.727728 -8.14008,6.632339 -3.49312,8.323731 -2.19622,21.594747 -6.92904,29.281546 -1.65155,2.68235 -7.529943,-2.258 -10.445735,-1.06606 -8.355768,3.41577 -16.822069,13.71638 -25.604058,15.80513 -3.064522,0.7289 -3.727729,-6.92115 -6.632338,-8.14011 -8.323729,-3.49311 -21.594748,-2.19623 -29.281543,-6.92903 -2.682349,-1.65154 2.257997,-7.529942 1.066053,-10.445737 -3.415765,-8.35577 -13.716339,-16.822067 -15.805122,-25.604057 -0.72889,-3.06452 6.921159,-3.727725 8.140101,-6.632337 3.493117,-8.323731 2.196225,-21.59475 6.929037,-29.281545 1.651538,-2.682348 7.529941,2.258 10.445732,1.066051 8.355773,-3.415761 16.82207,-13.716335 25.604061,-15.805119 0.143658,-0.03417 0.282046,-0.05029 0.415621,-0.04915 z"
       inkscape:export-filename="dcertificate_logo.svg"
       inkscape:export-xdpi="96"
       inkscape:export-ydpi="96" />
    <path
       sodipodi:type="star"
       style="fill:url(#linearGradient77);stroke-width:0.320881;stroke-linejoin:round"
       id="path13"
       inkscape:flatsided="false"
       sodipodi:sides="8"
       sodipodi:cx="33.274647"
       sodipodi:cy="29.281691"
       sodipodi:r1="27.443815"
       sodipodi:r2="24.235929"
       sodipodi:arg1="0.7615401"
       sodipodi:arg2="0.95550474"
       inkscape:rounded="0.3"
       inkscape:randomized="0"
       d="m 53.137771,48.218937 c -0.95008,1.506176 -4.245681,0.133483 -5.874227,0.853939 -4.216856,1.865504 -8.836949,6.626641 -13.334203,7.64482 -1.736835,0.393219 -3.096537,-2.907763 -4.757531,-3.54988 C 24.870931,51.50516 18.2374,51.604892 14.3374,49.144814 12.831224,48.194735 14.203917,44.899134 13.483461,43.270588 11.617957,39.053732 6.8568206,34.433639 5.8386418,29.936385 5.4454221,28.19955 8.7464046,26.839848 9.388521,25.178853 c 1.662657,-4.300878 1.562924,-10.934409 4.023002,-14.834409 0.950079,-1.5061759 4.245681,-0.133483 5.874226,-0.8539389 4.216856,-1.8655043 8.83695,-6.6266407 13.334204,-7.6448195 1.736835,-0.3932196 3.096536,2.9077628 4.757531,3.5498792 4.300878,1.6626569 10.934409,1.5629243 14.834409,4.0230019 1.506176,0.9500793 0.133483,4.2456813 0.853939,5.8742263 1.865505,4.216856 6.626641,8.836949 7.64482,13.334203 0.393219,1.736835 -2.907763,3.096537 -3.549879,4.757532 -1.662657,4.300878 -1.562925,10.934409 -4.023002,14.834409 z"
       transform="matrix(1.6489911,0.01945767,-0.01945767,1.6489911,11.845984,17.213151)" />
    <path
       id="path15"
       style="fill:#ffffff;fill-opacity:1;stroke:none;stroke-width:0.529165;stroke-linejoin:round;stroke-opacity:1"
       d="m 85.300011,48.495578 c -0.92617,0.03598 -1.810407,0.387022 -2.485479,1.06209 L 59.352574,73.019625 49.47753,63.145307 c -1.543022,-1.543021 -4.178975,-1.391728 -5.9102,0.339491 -1.731221,1.731225 -1.883236,4.367179 -0.340217,5.910198 l 13.000256,12.999528 0.33949,0.340221 c 0.747597,0.747594 1.75148,1.09699 2.784989,1.062084 2.39e-4,1e-5 4.89e-4,-6e-6 7.26e-4,0 1.033494,0.03487 2.037407,-0.314503 2.784993,-1.062088 l 0.339486,-0.340217 26.587168,-26.587167 c 1.543024,-1.543019 1.391731,-4.178972 -0.339491,-5.910196 -0.973815,-0.973813 -2.233922,-1.447864 -3.424719,-1.401583 z" />
    <path
       sodipodi:type="star"
       style="fill:url(#radialGradient66);fill-opacity:1;stroke-width:0.276174;stroke-linejoin:round"
       id="path63"
       inkscape:flatsided="false"
       sodipodi:sides="8"
       sodipodi:cx="33.274647"
       sodipodi:cy="29.281691"
       sodipodi:r1="27.296307"
       sodipodi:r2="23.498674"
       sodipodi:arg1="0.80017541"
       sodipodi:arg2="0.93599218"
       inkscape:rounded="0.3"
       inkscape:randomized="0"
       d="m 52.288732,48.866198 c -0.794279,1.315422 -3.650681,-1.230574 -5.078905,-0.66366 -4.629796,1.837732 -9.502696,7.177919 -14.33853,8.372479 -1.491784,0.368504 -1.711274,-3.451568 -3.12205,-4.060607 -4.573232,-1.974287 -11.794975,-1.643865 -16.059108,-4.218634 -1.315422,-0.794279 1.230574,-3.650681 0.66366,-5.078906 -1.837732,-4.629795 -7.1779184,-9.502695 -8.3724786,-14.338529 -0.3685043,-1.491784 3.4515682,-1.711274 4.0606066,-3.12205 1.974287,-4.573232 1.643865,-11.794975 4.218635,-16.0591078 0.794279,-1.3154225 3.650681,1.2305738 5.078905,0.6636598 4.629795,-1.8377317 9.502695,-7.1779186 14.338529,-8.3724788 1.491784,-0.3685043 1.711275,3.4515682 3.12205,4.0606068 4.573233,1.974287 11.794975,1.6438652 16.059108,4.218635 1.315423,0.794278 -1.230573,3.650681 -0.66366,5.078905 1.837732,4.629795 7.177919,9.502695 8.372479,14.338529 0.368504,1.491784 -3.451568,1.711275 -4.060607,3.12205 -1.974287,4.573232 -1.643865,11.794975 -4.218634,16.059108 z"
       transform="matrix(1.9107406,-0.1426927,0.1426927,1.9107406,-158.66801,14.944167)" />
    <path
       sodipodi:type="star"
       style="fill:#ffffff;fill-opacity:1;stroke-width:0.333277;stroke-linejoin:round"
       id="path64"
       inkscape:flatsided="false"
       sodipodi:sides="8"
       sodipodi:cx="33.274647"
       sodipodi:cy="29.281691"
       sodipodi:r1="27.296307"
       sodipodi:r2="23.223415"
       sodipodi:arg1="0.80017541"
       sodipodi:arg2="0.9548464"
       inkscape:rounded="0.3"
       inkscape:randomized="0"
       d="m 52.288732,48.866198 c -0.900529,1.42974 -4.026622,-1.252373 -5.597125,-0.628975 -4.500589,1.786471 -9.098361,7.265425 -13.82031,8.337794 -1.647748,0.374209 -1.961689,-3.732813 -3.513012,-4.402518 C 24.912662,50.253328 17.787341,50.876418 13.690139,48.295776 12.2604,47.395247 14.942513,44.269154 14.319114,42.69865 12.532643,38.198062 7.0536892,33.60029 5.9813204,28.878341 c -0.3742087,-1.647749 3.7328129,-1.96169 4.4025176,-3.513013 1.919171,-4.445622 1.296081,-11.570943 3.876724,-15.6681448 0.900529,-1.4297397 4.026621,1.2523728 5.597125,0.6289748 4.500589,-1.7864709 9.09836,-7.2654249 13.820309,-8.3377938 1.647749,-0.3742086 1.96169,3.7328129 3.513013,4.4025176 4.445623,1.919171 11.570944,1.2960809 15.668145,3.8767242 1.42974,0.900528 -1.252373,4.026621 -0.628975,5.597125 1.786471,4.500589 7.265425,9.09836 8.337794,13.820309 0.374209,1.647749 -3.732813,1.96169 -4.402517,3.513013 -1.919171,4.445623 -1.296081,11.570943 -3.876724,15.668145 z"
       transform="matrix(1.5876842,-0.01618609,0.01618609,1.5876842,-144.21409,20.19434)" />
    <path
       sodipodi:type="star"
       style="fill:url(#linearGradient66);fill-opacity:1;stroke-width:0.376754;stroke-linejoin:round"
       id="path65"
       inkscape:flatsided="false"
       sodipodi:sides="8"
       sodipodi:cx="33.274647"
       sodipodi:cy="29.281691"
       sodipodi:r1="27.443815"
       sodipodi:r2="24.235929"
       sodipodi:arg1="0.7615401"
       sodipodi:arg2="0.95550474"
       inkscape:rounded="0.3"
       inkscape:randomized="0"
       d="m 53.137771,48.218937 c -0.95008,1.506176 -4.245681,0.133483 -5.874227,0.853939 -4.216856,1.865504 -8.836949,6.626641 -13.334203,7.64482 -1.736835,0.393219 -3.096537,-2.907763 -4.757531,-3.54988 C 24.870931,51.50516 18.2374,51.604892 14.3374,49.144814 12.831224,48.194735 14.203917,44.899134 13.483461,43.270588 11.617957,39.053732 6.8568206,34.433639 5.8386418,29.936385 5.4454221,28.19955 8.7464046,26.839848 9.388521,25.178853 c 1.662657,-4.300878 1.562924,-10.934409 4.023002,-14.834409 0.950079,-1.5061759 4.245681,-0.133483 5.874226,-0.8539389 4.216856,-1.8655043 8.83695,-6.6266407 13.334204,-7.6448195 1.736835,-0.3932196 3.096536,2.9077628 4.757531,3.5498792 4.300878,1.6626569 10.934409,1.5629243 14.834409,4.0230019 1.506176,0.9500793 0.133483,4.2456813 0.853939,5.8742263 1.865505,4.216856 6.626641,8.836949 7.64482,13.334203 0.393219,1.736835 -2.907763,3.096537 -3.549879,4.757532 -1.662657,4.300878 -1.562925,10.934409 -4.023002,14.834409 z"
       transform="matrix(1.4044431,0.01657206,-0.01657206,1.4044431,-137.1576,24.469935)" />
    <path
       id="path66"
       style="fill:#ffffff;fill-opacity:1;stroke:none;stroke-width:0.529166;stroke-linejoin:round;stroke-opacity:1"
       d="m -74.596917,51.113127 c -0.78882,0.03065 -1.541922,0.329625 -2.116879,0.904581 l -19.982514,19.982511 -8.41056,-8.409941 c -1.31419,-1.314189 -3.55923,-1.185334 -5.03371,0.289143 -1.47447,1.474482 -1.60395,3.71952 -0.28976,5.033707 l 11.072298,11.071677 0.289144,0.289765 c 0.636727,0.636725 1.491733,0.934304 2.371971,0.904577 2.04e-4,7e-6 4.15e-4,-6e-6 6.17e-4,0 0.880227,0.02971 1.735256,-0.267863 2.371975,-0.90458 l 0.28914,-0.289762 22.644248,-22.644248 c 1.31419,-1.314186 1.185336,-3.559224 -0.289145,-5.033704 -0.829394,-0.829395 -1.902626,-1.233145 -2.916825,-1.193726 z" />
  </g>
  <g
     inkscape:groupmode="layer"
     id="layer6"
     inkscape:label="Copyright text"
     style="display:none"
     sodipodi:insensitive="true">
    <text
       xml:space="preserve"
       style="font-style:normal;font-variant:normal;font-weight:normal;font-stretch:normal;font-size:3.52778px;font-family:'Noto Sans Mono';-inkscape-font-specification:'Noto Sans Mono';text-align:center;letter-spacing:0.79375px;writing-mode:lr-tb;direction:ltr;text-anchor:middle;display:inline;fill:#000000;fill-opacity:1;stroke:none;stroke-width:0.529167;stroke-linejoin:round;stroke-opacity:1"
       x="66.177582"
       y="130.42911"
       id="text26"><tspan
         sodipodi:role="line"
         id="tspan26"
         style="font-style:normal;font-variant:normal;font-weight:normal;font-stretch:normal;font-size:3.52778px;font-family:'Noto Sans Mono';-inkscape-font-specification:'Noto Sans Mono';fill:#000000;fill-opacity:1;stroke-width:0.529167"
         x="66.574455"
         y="130.42911">Copyright 2026,Abhijeet</tspan></text>
  </g>
</svg>
